<svg width="50" height="100" viewBox="0 0 50 100" fill="none" xmlns="http://www.w3.org/2000/svg">
<path d="M50 96C50 98.2091 48.2091 100 46 100H4C1.79086 100 0 98.2091 0 96V3.99999C0 1.79086 1.79086 -1.52588e-05 4 -1.52588e-05H46C48.2091 -1.52588e-05 50 1.79085 50 3.99998V96ZM37.6663 91.6662C39.8754 91.6662 41.6663 89.8754 41.6663 87.6662V12.3337C41.6663 10.1246 39.8754 8.33374 37.6663 8.33374H12.3337C10.1246 8.33374 8.33375 10.1246 8.33375 12.3337V87.6663C8.33375 89.8754 10.1246 91.6662 12.3337 91.6662H37.6663ZM25.1663 83.3337C27.3754 83.3337 29.1663 81.5429 29.1663 79.3337V59C29.1663 56.7909 27.3754 55 25.1663 55H24.8337C22.6246 55 20.8337 56.7909 20.8337 59V79.3337C20.8337 81.5429 22.6246 83.3337 24.8337 83.3337H25.1663ZM29.1663 37.485C29.1663 36.3008 28.7658 35.3129 27.965 34.5212C27.1633 33.7296 26.17 33.3337 24.985 33.3337C23.8008 33.3337 22.8129 33.7342 22.0213 34.535C21.2296 35.3367 20.8337 36.33 20.8337 37.515C20.8337 38.6992 21.2342 39.6871 22.035 40.4787C22.8367 41.2704 23.83 41.6662 25.015 41.6662C26.1992 41.6662 27.1871 41.2658 27.9788 40.465C28.7704 39.6633 29.1663 38.67 29.1663 37.485ZM29.1663 22.485C29.1663 21.3008 28.7658 20.3129 27.965 19.5212C27.1633 18.7296 26.17 18.3337 24.985 18.3337C23.8008 18.3337 22.8129 18.7342 22.0213 19.535C21.2296 20.3367 20.8337 21.33 20.8337 22.515C20.8337 23.6992 21.2342 24.6871 22.035 25.4787C22.8367 26.2704 23.83 26.6662 25.015 26.6662C26.1992 26.6662 27.1871 26.2658 27.9788 25.465C28.7704 24.6633 29.1663 23.67 29.1663 22.485Z" fill="#E3E3E3"/>
</svg>
