<svg width="56" height="56" viewBox="0 0 56 56" fill="none" xmlns="http://www.w3.org/2000/svg">
<path d="M27.9998 39.6667C28.6609 39.6667 29.2151 39.4431 29.6623 38.9959C30.1096 38.5487 30.3332 37.9945 30.3332 37.3334C30.3332 36.6723 30.1096 36.1181 29.6623 35.6709C29.2151 35.2237 28.6609 35.0001 27.9998 35.0001C27.3387 35.0001 26.7846 35.2237 26.3373 35.6709C25.8901 36.1181 25.6665 36.6723 25.6665 37.3334C25.6665 37.9945 25.8901 38.5487 26.3373 38.9959C26.7846 39.4431 27.3387 39.6667 27.9998 39.6667ZM25.6665 30.3334H30.3332V16.3334H25.6665V30.3334ZM27.9998 51.3334C24.7721 51.3334 21.7387 50.7209 18.8998 49.4959C16.0609 48.2709 13.5915 46.6084 11.4915 44.5084C9.3915 42.4084 7.729 39.939 6.504 37.1001C5.279 34.2612 4.6665 31.2279 4.6665 28.0001C4.6665 24.7723 5.279 21.739 6.504 18.9001C7.729 16.0612 9.3915 13.5917 11.4915 11.4917C13.5915 9.39175 16.0609 7.72925 18.8998 6.50425C21.7387 5.27925 24.7721 4.66675 27.9998 4.66675C31.2276 4.66675 34.261 5.27925 37.0998 6.50425C39.9387 7.72925 42.4082 9.39175 44.5082 11.4917C46.6082 13.5917 48.2707 16.0612 49.4957 18.9001C50.7207 21.739 51.3332 24.7723 51.3332 28.0001C51.3332 31.2279 50.7207 34.2612 49.4957 37.1001C48.2707 39.939 46.6082 42.4084 44.5082 44.5084C42.4082 46.6084 39.9387 48.2709 37.0998 49.4959C34.261 50.7209 31.2276 51.3334 27.9998 51.3334ZM27.9998 46.6667C33.2109 46.6667 37.6248 44.8584 41.2415 41.2417C44.8582 37.6251 46.6665 33.2112 46.6665 28.0001C46.6665 22.789 44.8582 18.3751 41.2415 14.7584C37.6248 11.1417 33.2109 9.33341 27.9998 9.33341C22.7887 9.33341 18.3748 11.1417 14.7582 14.7584C11.1415 18.3751 9.33317 22.789 9.33317 28.0001C9.33317 33.2112 11.1415 37.6251 14.7582 41.2417C18.3748 44.8584 22.7887 46.6667 27.9998 46.6667Z" fill="#E06C60"/>
</svg>
